<svg xmlns="http://www.w3.org/2000/svg" xmlns:xlink="http://www.w3.org/1999/xlink" xmlns:serif="http://www.serif.com/"
     viewBox="0 0 32 40" version="1.1" xml:space="preserve" style="" x="0px" y="0px" fill-rule="evenodd"
     clip-rule="evenodd" stroke-linejoin="round" stroke-miterlimit="2"><g transform="matrix(1,0,0,1,-48,-192)"><g><path d="M64,193C55.721,193 49,199.721 49,208C49,216.279 55.721,223 64,223C72.279,223 79,216.279 79,208C79,199.721 72.279,193 64,193ZM61.5,214L66.5,214C67.052,214 67.5,213.552 67.5,213C67.5,212.448 67.052,212 66.5,212L61.5,212C60.948,212 60.5,212.448 60.5,213C60.5,213.552 60.948,214 61.5,214ZM59.5,209L68.5,209C69.052,209 69.5,208.552 69.5,208C69.5,207.448 69.052,207 68.5,207L59.5,207C58.948,207 58.5,207.448 58.5,208C58.5,208.552 58.948,209 59.5,209ZM57.5,204L70.5,204C71.052,204 71.5,203.552 71.5,203C71.5,202.448 71.052,202 70.5,202L57.5,202C56.948,202 56.5,202.448 56.5,203C56.5,203.552 56.948,204 57.5,204Z"/></g></g>
    <text x="0" y="47" fill="#000000" font-size="5px" font-weight="bold"
          font-family="'Helvetica Neue', Helvetica, Arial-Unicode, Arial, Sans-serif">Created by Paonkz</text>
    <text x="0" y="52" fill="#000000" font-size="5px" font-weight="bold"
          font-family="'Helvetica Neue', Helvetica, Arial-Unicode, Arial, Sans-serif">from the Noun Project</text></svg>
